HIERARCHY
ROOT Pelvis
{
	OFFSET 0.000000 0.000000 0.000000
	CHANNELS 6 Xposition Yposition Zposition Xrotation Yrotation Zrotation
	JOINT LeftUpLeg_virtual
	{
		OFFSET 0.000000 0.000000 0.000000
		CHANNELS 3 Xrotation Yrotation Zrotation
		JOINT LeftUpLeg
		{
			OFFSET 18.735201 -5.666702 -4.541200
			CHANNELS 3 Xrotation Yrotation Zrotation
			JOINT LeftLeg
			{
				OFFSET -0.021200 -31.938179 0.493100
				CHANNELS 3 Xrotation Yrotation Zrotation
				JOINT LeftFoot
				{
					OFFSET 0.021200 -31.938179 -4.336299
					CHANNELS 3 Xrotation Yrotation Zrotation
					JOINT LeftToeBase
					{
						OFFSET 0.943001 -26.722000 15.023500
						CHANNELS 3 Xrotation Yrotation Zrotation
						End Site
						{
							OFFSET 0 0 0
						}
					}
				}
			}
		}
	}
	JOINT RightUpLeg_virtual
	{
		OFFSET 0.000000 0.000000 0.000000
		CHANNELS 3 Xrotation Yrotation Zrotation
		JOINT RightUpLeg
		{
			OFFSET -18.735201 -5.666702 -4.541200
			CHANNELS 3 Xrotation Yrotation Zrotation
			JOINT RightLeg
			{
				OFFSET 0.018946 -31.938133 0.493100
				CHANNELS 3 Xrotation Yrotation Zrotation
				JOINT RightFoot
				{
					OFFSET -0.018946 -31.938126 -4.336299
					CHANNELS 3 Xrotation Yrotation Zrotation
					JOINT RightToeBase
					{
						OFFSET -0.943001 -26.722004 15.023500
						CHANNELS 3 Xrotation Yrotation Zrotation
						End Site
						{
							OFFSET 0 0 0
						}
					}
				}
			}
		}
	}
	JOINT Hips_virtual
	{
		OFFSET 0.000000 0.000000 0.000000
		CHANNELS 3 Xrotation Yrotation Zrotation
		JOINT Hips
		{
			OFFSET -0.000000 -0.000000 -0.000000
			CHANNELS 3 Xrotation Yrotation Zrotation
			JOINT Spine
			{
				OFFSET 0.000000 10.199997 -0.299500
				CHANNELS 3 Xrotation Yrotation Zrotation
				JOINT Spine1
				{
					OFFSET 0.000000 11.900002 -1.516600
					CHANNELS 3 Xrotation Yrotation Zrotation
					JOINT Spine2
					{
						OFFSET 0.000000 13.600006 -2.842500
						CHANNELS 3 Xrotation Yrotation Zrotation
						JOINT Neck_virtual
						{
							OFFSET 0.000000 0.000000 0.000000
							CHANNELS 3 Xrotation Yrotation Zrotation
							JOINT Neck
							{
								OFFSET 0.000000 9.624100 -2.890100
								CHANNELS 3 Xrotation Yrotation Zrotation
								JOINT Head
								{
									OFFSET 0.000000 14.068802 -1.351900
									CHANNELS 3 Xrotation Yrotation Zrotation
									End Site
									{
										OFFSET 0 0 0
									}
								}
							}
						}
						JOINT LeftShoulder_virtual
						{
							OFFSET 0.000000 0.000000 0.000000
							CHANNELS 3 Xrotation Yrotation Zrotation
							JOINT LeftShoulder
							{
								OFFSET 15.263000 10.923401 -0.547700
								CHANNELS 3 Xrotation Yrotation Zrotation
								JOINT LeftArm
								{
									OFFSET 25.438599 -2.830597 -13.032500
									CHANNELS 3 Xrotation Yrotation Zrotation
									JOINT LeftForeArm
									{
										OFFSET 29.960503 0.000000 0.000000
										CHANNELS 3 Xrotation Yrotation Zrotation
										JOINT LeftHand
										{
											OFFSET 27.849251 0.000000 0.000000
											CHANNELS 3 Xrotation Yrotation Zrotation
											End Site
											{
												OFFSET 0 0 0
											}
										}
									}
								}
							}
						}
						JOINT RightShoulder_virtual
						{
							OFFSET 0.000000 0.000000 0.000000
							CHANNELS 3 Xrotation Yrotation Zrotation
							JOINT RightShoulder
							{
								OFFSET -15.263000 10.923401 -0.547700
								CHANNELS 3 Xrotation Yrotation Zrotation
								JOINT RightArm
								{
									OFFSET -25.438599 -2.830597 -13.032500
									CHANNELS 3 Xrotation Yrotation Zrotation
									JOINT RightForeArm
									{
										OFFSET -29.960503 0.000000 0.000000
										CHANNELS 3 Xrotation Yrotation Zrotation
										JOINT RightHand
										{
											OFFSET -27.849251 0.000000 0.000000
											CHANNELS 3 Xrotation Yrotation Zrotation
											End Site
											{
												OFFSET 0 0 0
											}
										}
									}
								}
							}
						}
					}
				}
			}
		}
	}
}
MOTION
Frames: 11
Frame Time: 0.03333333
5.674469 46.804039 -4.040656 0.000000 0.000000 0.000000 -12.005031 -30.335985 23.231652 -64.360401 -11.874308 37.566372 83.673431 -0.083967 -7.352575 23.329136 1.938906 -16.970030 0.000000 0.000000 0.000000 5.660792 -4.413713 1.021148 -24.781052 -5.952207 -15.523608 100.346332 8.205513 1.105769 29.329437 8.995662 23.018421 0.000000 0.000000 0.000000 -4.054180 -23.152139 2.677351 4.852830 4.185162 7.414781 4.758680 -7.369246 -4.473425 1.995376 -3.551046 -2.283704 0.000000 0.000000 0.000000 3.580018 -3.241476 -1.002197 -0.092967 0.120211 0.090165 0.000000 0.000000 0.000000 3.862510 -2.911884 -0.305144 1.549355 -2.262717 -4.149791 -19.585626 -20.116598 -51.292395 -1.639356 -63.172365 -5.034944 0.000000 0.000000 0.000000 5.183408 -1.025867 -0.820237 4.453421 5.900868 -1.160421 -25.943674 2.572974 36.889678 -56.475826 81.749496 53.943215 0.000000 0.000000 0.000000 
5.627605 46.821884 -4.034319 0.000000 0.000000 0.000000 -11.983204 -30.265876 23.205539 -64.312836 -11.840970 37.553784 83.598701 -0.039350 -7.393946 23.269123 2.010049 -17.000839 0.000000 0.000000 0.000000 5.598498 -4.501834 1.029231 -24.870411 -5.961883 -15.531208 100.261918 8.131227 1.100346 29.342909 8.926840 22.910743 0.000000 0.000000 0.000000 -4.005653 -23.126790 2.714515 4.913980 4.127244 7.552197 4.601618 -7.285399 -4.644945 1.989827 -3.496502 -2.413242 0.000000 0.000000 0.000000 3.599791 -3.232869 -1.052973 -0.120455 0.120810 0.123294 0.000000 0.000000 0.000000 3.828889 -2.877251 -0.348631 1.535015 -2.147395 -3.900111 -19.404497 -20.043427 -51.540788 -1.690374 -63.342170 -5.086532 0.000000 0.000000 0.000000 5.186165 -0.975846 -0.853459 4.428602 5.865331 -1.069809 -25.784603 3.594498 36.147537 -59.410590 82.263529 56.897887 0.000000 0.000000 0.000000 
5.582225 46.838440 -4.031156 0.000000 0.000000 0.000000 -11.958101 -30.200378 23.181934 -64.262812 -11.809111 37.542640 83.530659 -0.000098 -7.432807 23.214618 2.073723 -17.033244 0.000000 0.000000 0.000000 5.539153 -4.598703 1.041042 -24.956664 -5.975318 -15.536370 100.189511 8.059306 1.095934 29.360299 8.859960 22.808069 0.000000 0.000000 0.000000 -3.949898 -23.099220 2.753551 5.002375 4.054629 7.696099 4.455311 -7.200403 -4.813805 1.990250 -3.442797 -2.541603 0.000000 0.000000 0.000000 3.618435 -3.224423 -1.104522 -0.148825 0.121334 0.155058 0.000000 0.000000 0.000000 3.794986 -2.840189 -0.394638 1.516491 -2.024432 -3.665496 -19.236517 -19.980489 -51.784158 -1.744866 -63.521511 -5.138278 0.000000 0.000000 0.000000 5.187309 -0.928927 -0.887446 4.398936 5.817957 -0.985515 -25.650586 4.552377 35.454511 -62.924887 82.731103 60.431581 0.000000 0.000000 0.000000 
5.538151 46.853851 -4.031302 0.000000 0.000000 0.000000 -11.929748 -30.140819 23.160482 -64.210684 -11.778881 37.532607 83.469508 0.032498 -7.468877 23.165763 2.128421 -17.067953 0.000000 0.000000 0.000000 5.483673 -4.705597 1.056472 -25.038575 -5.993005 -15.539201 100.128661 7.990011 1.093093 29.381090 8.794914 22.711482 0.000000 0.000000 0.000000 -3.888473 -23.070335 2.793535 5.115016 3.961712 7.845852 4.321354 -7.115975 -4.978846 1.996968 -3.390759 -2.667888 0.000000 0.000000 0.000000 3.635187 -3.216785 -1.155259 -0.178161 0.121447 0.186073 0.000000 0.000000 0.000000 3.761565 -2.801535 -0.442110 1.494551 -1.896474 -3.444462 -19.080159 -19.929689 -52.018782 -1.799864 -63.709880 -5.186945 0.000000 0.000000 0.000000 5.188130 -0.885174 -0.920808 4.365653 5.760290 -0.903134 -25.535072 5.451481 34.813922 -67.033170 83.144938 64.561093 0.000000 0.000000 0.000000 
5.495121 46.868324 -4.034372 0.000000 0.000000 0.000000 -11.898621 -30.088025 23.140946 -64.157189 -11.750464 37.523468 83.415338 0.057351 -7.502016 23.122513 2.172939 -17.105661 0.000000 0.000000 0.000000 5.432835 -4.823027 1.075177 -25.114966 -6.015164 -15.539920 100.077967 7.923236 1.092321 29.404446 8.731214 22.621477 0.000000 0.000000 0.000000 -3.823260 -23.039738 2.833535 5.247176 3.848254 8.000111 4.200682 -7.033414 -5.139154 2.009944 -3.340957 -2.791307 0.000000 0.000000 0.000000 3.649476 -3.210137 -1.203649 -0.208420 0.121044 0.216952 0.000000 0.000000 0.000000 3.729435 -2.761963 -0.489952 1.470216 -1.765838 -3.235163 -18.932885 -19.893421 -52.241241 -1.851583 -63.906945 -5.228893 0.000000 0.000000 0.000000 5.190078 -0.844280 -0.952297 4.330411 5.695124 -0.818726 -25.428750 6.298972 34.223397 -71.691066 83.498291 69.243652 0.000000 0.000000 0.000000 
5.452857 46.882133 -4.039502 0.000000 0.000000 0.000000 -11.865517 -30.042321 23.123223 -64.103402 -11.724090 37.515111 83.368162 0.073723 -7.532140 23.084740 2.206476 -17.146806 0.000000 0.000000 0.000000 5.387290 -4.950579 1.096674 -25.184685 -6.041727 -15.538774 100.035374 7.858781 1.093997 29.429181 8.668294 22.538248 0.000000 0.000000 0.000000 -3.756206 -23.006201 2.872714 5.392577 3.718854 8.156536 4.093570 -6.953545 -5.294088 2.028797 -3.293685 -2.911218 0.000000 0.000000 0.000000 3.660988 -3.204227 -1.248376 -0.239420 0.120243 0.248205 0.000000 0.000000 0.000000 3.699303 -2.721960 -0.537162 1.444554 -1.634333 -3.035861 -18.791537 -19.874163 -52.448715 -1.895923 -64.112554 -5.260565 0.000000 0.000000 0.000000 5.194478 -0.805639 -0.980904 4.294931 5.626262 -0.729141 -25.320812 7.102908 33.676108 -76.787411 83.787126 74.368985 0.000000 0.000000 0.000000 
5.411116 46.895645 -4.045508 0.000000 0.000000 0.000000 -11.831411 -30.003471 23.107387 -64.050406 -11.699947 37.507595 83.327891 0.081318 -7.559161 23.052285 2.228706 -17.191400 0.000000 0.000000 0.000000 5.347615 -5.086926 1.120445 -25.246606 -6.072378 -15.535948 99.998395 7.796585 1.098360 29.453821 8.605793 22.461974 0.000000 0.000000 0.000000 -3.689036 -22.968241 2.910416 5.543798 3.581307 8.311746 3.999680 -6.876770 -5.443277 2.052854 -3.249006 -3.027136 0.000000 0.000000 0.000000 3.669666 -3.198530 -1.288487 -0.270877 0.119306 0.280156 0.000000 0.000000 0.000000 3.671648 -2.681865 -0.582948 1.418489 -1.503260 -2.845386 -18.652700 -19.874092 -52.639267 -1.928933 -64.326366 -5.278907 0.000000 0.000000 0.000000 5.202278 -0.768490 -1.005896 4.260664 5.558034 -0.632236 -25.200164 7.871018 33.162624 -82.152942 84.010705 79.768017 0.000000 0.000000 0.000000 
5.369720 46.909245 -4.051123 0.000000 0.000000 0.000000 -11.797313 -29.970542 23.093626 -63.999214 -11.678134 37.501099 83.294355 0.080320 -7.582978 23.024998 2.239800 -17.239012 0.000000 0.000000 0.000000 5.314345 -5.230023 1.146031 -25.299593 -6.106626 -15.531490 99.964402 7.736895 1.105507 29.476658 8.543714 22.392973 0.000000 0.000000 0.000000 -3.623034 -22.924676 2.946229 5.692758 3.444277 8.461598 3.918134 -6.803215 -5.586592 2.081194 -3.206837 -3.138733 0.000000 0.000000 0.000000 3.675631 -3.192464 -1.323478 -0.302459 0.118531 0.312893 0.000000 0.000000 0.000000 3.646618 -2.641944 -0.626809 1.392648 -1.373604 -2.663472 -18.512958 -19.894743 -52.812020 -1.947182 -64.547624 -5.281719 0.000000 0.000000 0.000000 5.213917 -0.732090 -1.026843 4.228594 5.494643 -0.526977 -25.056235 8.609897 32.672982 -87.586330 84.173783 85.239490 0.000000 0.000000 0.000000 
5.328559 46.923283 -4.055233 0.000000 0.000000 0.000000 -11.764150 -29.941869 23.082160 -63.950576 -11.658551 37.495864 83.267191 0.071343 -7.603526 23.002790 2.240395 -17.288874 0.000000 0.000000 0.000000 5.288001 -5.377388 1.173083 -25.342512 -6.143888 -15.525319 99.930852 7.680281 1.115399 29.495854 8.482466 22.331806 0.000000 0.000000 0.000000 -3.558966 -22.874915 2.979982 5.831266 3.314934 8.601743 3.847616 -6.732900 -5.724092 2.112719 -3.167051 -3.245813 0.000000 0.000000 0.000000 3.679068 -3.185588 -1.353330 -0.333852 0.118131 0.346244 0.000000 0.000000 0.000000 3.623975 -2.602468 -0.668586 1.367295 -1.246331 -2.490928 -18.369118 -19.936795 -52.967273 -1.948068 -64.774919 -5.267914 0.000000 0.000000 0.000000 5.229308 -0.695879 -1.043610 4.199211 5.439489 -0.413470 -24.879543 9.324707 32.198550 -92.894001 84.285641 90.589892 0.000000 0.000000 0.000000 
5.287562 46.937992 -4.057055 0.000000 0.000000 0.000000 -11.732775 -29.915006 23.073129 -63.904944 -11.640872 37.492138 83.245867 0.055337 -7.620829 22.985569 2.231523 -17.340059 0.000000 0.000000 0.000000 5.269099 -5.526416 1.201391 -25.374306 -6.183590 -15.517237 99.895499 7.627545 1.127899 29.509644 8.422767 22.279175 0.000000 0.000000 0.000000 -3.497152 -22.819126 3.011692 5.951703 3.197254 8.728373 3.786515 -6.665874 -5.855974 2.146218 -3.129541 -3.348294 0.000000 0.000000 0.000000 3.680146 -3.177726 -1.378491 -0.364805 0.118160 0.379791 0.000000 0.000000 0.000000 3.603122 -2.563751 -0.708450 1.342347 -1.122670 -2.329587 -18.218380 -19.999989 -53.106551 -1.930008 -65.006216 -5.237655 0.000000 0.000000 0.000000 5.247940 -0.659564 -1.056349 4.172601 5.394668 -0.292889 -24.661878 10.019245 31.733342 -97.925768 84.358089 95.669353 0.000000 0.000000 0.000000 
5.246630 46.953430 -4.056196 0.000000 0.000000 0.000000 -11.703916 -29.886954 23.066572 -63.862569 -11.624528 37.490164 83.229728 0.033456 -7.635046 22.973290 2.214488 -17.391692 0.000000 0.000000 0.000000 5.258140 -5.674665 1.230873 -25.394013 -6.225206 -15.506978 99.856662 7.579554 1.142798 29.516509 8.365477 22.235802 0.000000 0.000000 0.000000 -3.437639 -22.758088 3.041474 6.047831 3.091414 8.838921 3.733131 -6.602238 -5.982512 2.180482 -3.094238 -3.446175 0.000000 0.000000 0.000000 3.678987 -3.168989 -1.399817 -0.395133 0.118502 0.412907 0.000000 0.000000 0.000000 3.583191 -2.526141 -0.746843 1.317472 -1.004229 -2.181997 -18.058516 -20.083138 -53.232363 -1.892509 -65.238989 -5.192299 0.000000 0.000000 0.000000 5.269042 -0.623120 -1.065464 4.148631 5.360792 -0.167293 -24.396510 10.696200 31.274709 -102.595261 84.403919 100.392388 0.000000 0.000000 0.000000 
